<svg width="211" height="217" viewBox="0 0 211 217" fill="none" xmlns="http://www.w3.org/2000/svg">
<path d="M210.747 0H0V216.95H210.747V0Z" fill="black"/>
<path d="M135.099 57.6387H78.9449C62.1934 57.6387 49.0639 71.0622 49.0639 88.2159V115.046L40.5291 156.164C40.48 156.4 40.4932 156.645 40.5674 156.875C40.6417 157.105 40.7745 157.312 40.9528 157.475C41.131 157.638 41.3486 157.751 41.5842 157.805C41.8197 157.858 42.0651 157.85 42.2962 157.78L79.1512 146.584H135.099C151.751 146.584 165.813 132.213 165.813 115.187V88.2159C165.813 71.3527 152.027 57.6387 135.099 57.6387ZM163.029 115.187C163.029 130.709 150.248 143.813 135.099 143.813H78.9449C78.8051 143.813 78.6705 143.831 78.541 143.868L43.7316 154.45L51.8074 115.464L51.8349 115.185V88.2143C51.8349 72.6214 63.7526 60.4097 78.9432 60.4097H135.126C150.511 60.3856 163.012 72.8293 163.058 88.2159L163.029 115.187ZM76.3956 93.7717H75.9367C73.0832 93.7717 67.1355 93.7717 67.1355 99.8002V128.065C67.1355 134.082 73.0832 134.082 75.9367 134.082H76.3956C79.2491 134.082 85.1969 134.082 85.1969 128.052V99.7984C85.1969 93.7819 79.2491 93.7819 76.3956 93.7819M82.4259 128.065C82.4259 130.266 81.5199 131.309 76.3956 131.309H75.9367C70.8141 131.309 69.9082 130.266 69.9082 128.065V99.7984C69.9082 97.6118 70.8124 96.5667 75.9367 96.5667H76.3956C81.5182 96.5667 82.4259 97.6118 82.4259 99.8121V128.065ZM106.973 67.3561H106.514C103.659 67.3561 97.7127 67.3561 97.7127 73.3846V129.456C97.7127 135.484 103.659 135.484 106.514 135.484H106.973C109.826 135.484 115.772 135.484 115.772 129.456V73.3828C115.772 67.3561 109.826 67.3561 106.973 67.3561ZM113.001 129.442C113.001 131.642 112.097 132.686 106.973 132.686H106.514C101.39 132.686 100.484 131.642 100.484 129.442V73.3863C100.484 71.186 101.39 70.1408 106.514 70.1408H106.973C112.095 70.1408 113.001 71.186 113.001 73.3846V129.442ZM137.548 81.266H137.089C134.236 81.266 128.288 81.266 128.288 87.2825V129.456C128.288 135.484 134.236 135.484 137.089 135.484H137.548C140.402 135.484 146.363 135.484 146.363 129.456V87.2808C146.363 81.2644 140.404 81.266 137.548 81.266ZM143.579 129.442C143.579 131.642 142.673 132.686 137.548 132.686H137.089C131.967 132.686 131.073 131.642 131.073 129.442V87.2791C131.073 85.0788 131.967 84.0354 137.089 84.0354H137.548C142.671 84.0354 143.579 85.0788 143.579 87.2791V129.442Z" fill="white"/>
</svg>

