<svg width="11" height="7" viewBox="0 0 11 7" fill="none" xmlns="http://www.w3.org/2000/svg">
<path d="M3.336 0.376C3.432 0.365333 3.53333 0.36 3.64 0.36C3.82133 0.365333 3.97333 0.384 4.096 0.416C4.35733 0.48 4.496 0.629333 4.512 0.864C4.51733 0.96 4.50133 1.05867 4.464 1.16C4.41067 1.29867 4.34667 1.40533 4.272 1.48C4.10133 1.656 3.896 1.752 3.656 1.768C3.592 1.768 3.54933 1.74133 3.528 1.688C3.51733 1.66667 3.51467 1.64 3.52 1.608C3.52 1.576 3.53867 1.536 3.576 1.488C3.61867 1.40267 3.64 1.328 3.64 1.264C3.624 1.14667 3.57333 1.07733 3.488 1.056C3.30667 0.997333 3.13067 0.973333 2.96 0.984C2.752 1 2.57067 1.056 2.416 1.152C2.19733 1.296 2.06933 1.504 2.032 1.776C2.016 1.87733 2.02133 1.97067 2.048 2.056C2.112 2.28533 2.28267 2.45333 2.56 2.56C2.74667 2.64 2.95467 2.68 3.184 2.68C3.23733 2.68 3.28 2.69867 3.312 2.736C3.376 2.81067 3.34133 2.91467 3.208 3.048C3.19733 3.05333 3.18667 3.06133 3.176 3.072C2.99467 3.22667 2.81067 3.304 2.624 3.304C2.368 3.304 2.12533 3.376 1.896 3.52C1.55467 3.73333 1.31467 4.04267 1.176 4.448C1.16533 4.48533 1.15467 4.52267 1.144 4.56C1.128 4.61333 1.12 4.68267 1.12 4.768C1.12 4.848 1.12533 4.90933 1.136 4.952C1.216 5.19733 1.39467 5.368 1.672 5.464C1.86933 5.53333 2.06133 5.56 2.248 5.544C2.59467 5.512 2.896 5.32533 3.152 4.984C3.232 4.87733 3.31467 4.79733 3.4 4.744C3.55467 4.64267 3.704 4.592 3.848 4.592C3.90667 4.592 3.94933 4.616 3.976 4.664C4.01333 4.72267 3.97867 4.81867 3.872 4.952C3.49867 5.45333 3.01333 5.81333 2.416 6.032C2.4 6.03733 2.384 6.04267 2.368 6.048C1.93067 6.18667 1.536 6.216 1.184 6.136C0.864 6.07733 0.610667 5.928 0.424 5.688C0.232 5.44267 0.189333 5.14667 0.296 4.8C0.445333 4.272 0.765333 3.81067 1.256 3.416C1.42667 3.28267 1.56533 3.18667 1.672 3.128C1.688 3.11733 1.69867 3.10933 1.704 3.104L1.672 3.08C1.62933 3.05867 1.54933 3.00267 1.432 2.912C1.31467 2.80533 1.22933 2.66133 1.176 2.48C1.16533 2.432 1.16 2.35733 1.16 2.256C1.16 2.14933 1.16533 2.072 1.176 2.024C1.224 1.784 1.33867 1.55467 1.52 1.336C1.63733 1.192 1.752 1.08 1.864 1C2.30667 0.642666 2.79733 0.434666 3.336 0.376Z" fill="#0000FF"/>
<path d="M6.84256 0.544H8.37056C8.78123 0.576 9.12256 0.664 9.39456 0.808C9.6879 0.962667 9.8879 1.15467 9.99456 1.384C10.1066 1.608 10.1226 1.86933 10.0426 2.168C9.89323 2.744 9.50123 3.248 8.86656 3.68C8.7119 3.78133 8.54923 3.87467 8.37856 3.96C7.8719 4.21067 7.3519 4.344 6.81856 4.36H6.65856L6.61856 4.336L6.57856 4.312L6.49056 4.584C6.3359 5.05867 6.1679 5.51733 5.98656 5.96C5.9439 6.072 5.89056 6.16267 5.82656 6.232C5.66123 6.38667 5.46923 6.472 5.25056 6.488C5.2079 6.488 5.17323 6.48 5.14656 6.464C5.13056 6.45333 5.1119 6.43467 5.09056 6.408C5.0799 6.376 5.10123 6.29333 5.15456 6.16C5.69856 4.848 6.07723 3.49867 6.29056 2.112C6.3759 1.504 6.41323 1.18933 6.40256 1.168C6.38656 1.15733 6.2799 1.17067 6.08256 1.208C5.7839 1.256 5.5679 1.33867 5.43456 1.456C5.34923 1.54133 5.28523 1.65067 5.24256 1.784C5.2159 1.85333 5.1759 1.92267 5.12256 1.992C4.93056 2.15733 4.7279 2.25067 4.51456 2.272C4.44523 2.272 4.3999 2.248 4.37856 2.2C4.36256 2.168 4.3679 2.10667 4.39456 2.016C4.50123 1.70667 4.7039 1.43733 5.00256 1.208C5.49323 0.824 6.10656 0.602667 6.84256 0.544ZM7.70656 1.168C7.49323 1.14667 7.33856 1.14667 7.24256 1.168C7.24256 1.25333 7.2159 1.456 7.16256 1.776C7.04523 2.54933 6.88523 3.27733 6.68256 3.96L6.66656 4.016L6.70656 3.976C6.84523 3.848 6.99723 3.77067 7.16256 3.744C7.1839 3.73867 7.2239 3.736 7.28256 3.736C7.36256 3.736 7.48256 3.72533 7.64256 3.704C8.26123 3.60267 8.7119 3.32533 8.99456 2.872C9.07456 2.744 9.13323 2.608 9.17056 2.464C9.25056 2.19733 9.22123 1.96 9.08256 1.752C9.02923 1.66133 8.9439 1.57333 8.82656 1.488C8.5439 1.30667 8.17056 1.2 7.70656 1.168Z" fill="#FF0000"/>
</svg>
